<svg xmlns="http://www.w3.org/2000/svg" xmlns:xlink="http://www.w3.org/1999/xlink" width="500" zoomAndPan="magnify" viewBox="0 0 375 374.999991" height="500" preserveAspectRatio="xMidYMid meet" version="1.2"><defs><clipPath id="139f17327f"><path d="M 1.070312 1.203125 L 241.925781 1.203125 L 241.925781 277.8125 L 1.070312 277.8125 Z M 1.070312 1.203125 "/></clipPath><clipPath id="fc6700cd59"><path d="M 124.746094 2.140625 L 238.679688 68.015625 C 240.6875 69.175781 241.925781 71.320312 241.925781 73.640625 L 241.925781 204.960938 C 241.925781 207.28125 240.6875 209.425781 238.679688 210.589844 L 124.746094 276.464844 C 122.738281 277.625 120.261719 277.625 118.253906 276.464844 L 4.316406 210.589844 C 2.308594 209.425781 1.070312 207.28125 1.070312 204.960938 L 1.070312 73.640625 C 1.070312 71.320312 2.308594 69.175781 4.316406 68.015625 L 118.253906 2.140625 C 120.261719 0.980469 122.738281 0.980469 124.746094 2.140625 Z M 124.746094 2.140625 "/></clipPath><clipPath id="f74b256c0a"><path d="M 0.0703125 0.203125 L 240.925781 0.203125 L 240.925781 276.761719 L 0.0703125 276.761719 Z M 0.0703125 0.203125 "/></clipPath><clipPath id="1ef28930b7"><path d="M 123.746094 1.140625 L 237.679688 67.015625 C 239.6875 68.175781 240.925781 70.320312 240.925781 72.640625 L 240.925781 203.960938 C 240.925781 206.28125 239.6875 208.425781 237.679688 209.589844 L 123.746094 275.464844 C 121.738281 276.625 119.261719 276.625 117.253906 275.464844 L 3.316406 209.589844 C 1.308594 208.425781 0.0703125 206.28125 0.0703125 203.960938 L 0.0703125 72.640625 C 0.0703125 70.320312 1.308594 68.175781 3.316406 67.015625 L 117.253906 1.140625 C 119.261719 -0.0195312 121.738281 -0.0195312 123.746094 1.140625 Z M 123.746094 1.140625 "/></clipPath><clipPath id="48bc173482"><rect x="0" width="241" y="0" height="277"/></clipPath><clipPath id="75e57bf833"><path d="M 22.675781 25.300781 L 220.324219 25.300781 L 220.324219 253.828125 L 22.675781 253.828125 Z M 22.675781 25.300781 "/></clipPath><clipPath id="41b49de6af"><path d="M 124.742188 26.414062 L 217.082031 80.136719 C 219.089844 81.304688 220.324219 83.453125 220.324219 85.773438 L 220.324219 193.269531 C 220.324219 195.589844 219.089844 197.738281 217.082031 198.902344 L 124.742188 252.628906 C 122.738281 253.796875 120.261719 253.796875 118.257812 252.628906 L 25.917969 198.902344 C 23.910156 197.738281 22.675781 195.589844 22.675781 193.269531 L 22.675781 85.773438 C 22.675781 83.453125 23.910156 81.304688 25.917969 80.136719 L 118.257812 26.414062 C 120.261719 25.246094 122.738281 25.246094 124.742188 26.414062 Z M 124.742188 26.414062 "/></clipPath><clipPath id="535020405a"><path d="M 0.675781 0.300781 L 198.324219 0.300781 L 198.324219 228.828125 L 0.675781 228.828125 Z M 0.675781 0.300781 "/></clipPath><clipPath id="fdcbd77354"><path d="M 102.742188 1.414062 L 195.082031 55.136719 C 197.089844 56.304688 198.324219 58.453125 198.324219 60.773438 L 198.324219 168.269531 C 198.324219 170.589844 197.089844 172.738281 195.082031 173.902344 L 102.742188 227.628906 C 100.738281 228.796875 98.261719 228.796875 96.257812 227.628906 L 3.917969 173.902344 C 1.910156 172.738281 0.675781 170.589844 0.675781 168.269531 L 0.675781 60.773438 C 0.675781 58.453125 1.910156 56.304688 3.917969 55.136719 L 96.257812 1.414062 C 98.261719 0.246094 100.738281 0.246094 102.742188 1.414062 Z M 102.742188 1.414062 "/></clipPath><clipPath id="f99b0cbd97"><rect x="0" width="199" y="0" height="229"/></clipPath><clipPath id="74c88b90b5"><path d="M 32.894531 37.109375 L 210.105469 37.109375 L 210.105469 242 L 32.894531 242 Z M 32.894531 37.109375 "/></clipPath><clipPath id="fcb4ca7341"><path d="M 124.742188 38.304688 L 206.863281 86.082031 C 208.871094 87.25 210.105469 89.398438 210.105469 91.71875 L 210.105469 187.324219 C 210.105469 189.644531 208.871094 191.792969 206.863281 192.957031 L 124.742188 240.738281 C 122.738281 241.90625 120.261719 241.90625 118.257812 240.738281 L 36.136719 192.957031 C 34.128906 191.792969 32.894531 189.644531 32.894531 187.324219 L 32.894531 91.71875 C 32.894531 89.398438 34.128906 87.25 36.136719 86.082031 L 118.257812 38.304688 C 120.261719 37.136719 122.738281 37.136719 124.742188 38.304688 Z M 124.742188 38.304688 "/></clipPath><clipPath id="8f9eddb172"><path d="M 0.894531 0.109375 L 178.105469 0.109375 L 178.105469 205 L 0.894531 205 Z M 0.894531 0.109375 "/></clipPath><clipPath id="80e31ca958"><path d="M 92.742188 1.304688 L 174.863281 49.082031 C 176.871094 50.25 178.105469 52.398438 178.105469 54.71875 L 178.105469 150.324219 C 178.105469 152.644531 176.871094 154.792969 174.863281 155.957031 L 92.742188 203.738281 C 90.738281 204.90625 88.261719 204.90625 86.257812 203.738281 L 4.136719 155.957031 C 2.128906 154.792969 0.894531 152.644531 0.894531 150.324219 L 0.894531 54.71875 C 0.894531 52.398438 2.128906 50.25 4.136719 49.082031 L 86.257812 1.304688 C 88.261719 0.136719 90.738281 0.136719 92.742188 1.304688 Z M 92.742188 1.304688 "/></clipPath><clipPath id="55607fdd30"><rect x="0" width="179" y="0" height="205"/></clipPath><clipPath id="6dc2333a0d"><path d="M 59.867188 77.886719 L 179 77.886719 L 179 116 L 59.867188 116 Z M 59.867188 77.886719 "/></clipPath><clipPath id="100f5c80ce"><path d="M 59.867188 139.441406 L 182.859375 139.441406 L 182.859375 200.882812 L 59.867188 200.882812 Z M 59.867188 139.441406 "/></clipPath><clipPath id="3a746f0085"><path d="M 59.867188 107 L 81 107 L 81 129 L 59.867188 129 Z M 59.867188 107 "/></clipPath><clipPath id="cc9edfc9ac"><rect x="0" width="243" y="0" height="280"/></clipPath></defs><g id="ad665d8131"><g transform="matrix(1,0,0,1,66,16)"><g clip-path="url(#cc9edfc9ac)"><g clip-rule="nonzero" clip-path="url(#139f17327f)"><g clip-rule="nonzero" clip-path="url(#fc6700cd59)"><g transform="matrix(1,0,0,1,1,1)"><g id="a02708cec2" clip-path="url(#48bc173482)"><g clip-rule="nonzero" clip-path="url(#f74b256c0a)"><g clip-rule="nonzero" clip-path="url(#1ef28930b7)"><path style=" stroke:none;fill-rule:nonzero;fill:#0bf592;fill-opacity:1;" d="M 0.0703125 -0.738281 L 240.925781 -0.738281 L 240.925781 277.75 L 0.0703125 277.75 Z M 0.0703125 -0.738281 "/></g></g></g></g></g></g><g clip-rule="nonzero" clip-path="url(#75e57bf833)"><g clip-rule="nonzero" clip-path="url(#41b49de6af)"><g transform="matrix(1,0,0,1,22,25)"><g id="93e466a379" clip-path="url(#f99b0cbd97)"><g clip-rule="nonzero" clip-path="url(#535020405a)"><g clip-rule="nonzero" clip-path="url(#fdcbd77354)"><path style=" stroke:none;fill-rule:nonzero;fill:#33644d;fill-opacity:1;" d="M 0.675781 -0.472656 L 198.324219 -0.472656 L 198.324219 229.597656 L 0.675781 229.597656 Z M 0.675781 -0.472656 "/></g></g></g></g></g></g><g clip-rule="nonzero" clip-path="url(#74c88b90b5)"><g clip-rule="nonzero" clip-path="url(#fcb4ca7341)"><g transform="matrix(1,0,0,1,32,37)"><g id="39481f928f" clip-path="url(#55607fdd30)"><g clip-rule="nonzero" clip-path="url(#8f9eddb172)"><g clip-rule="nonzero" clip-path="url(#80e31ca958)"><path style=" stroke:none;fill-rule:nonzero;fill:#0bf592;fill-opacity:1;" d="M 0.894531 -0.582031 L 178.105469 -0.582031 L 178.105469 205.699219 L 0.894531 205.699219 Z M 0.894531 -0.582031 "/></g></g></g></g></g></g><g clip-rule="nonzero" clip-path="url(#6dc2333a0d)"><path style=" stroke:none;fill-rule:nonzero;fill:#434343;fill-opacity:1;" d="M 81.023438 99.070312 L 121.519531 99.070312 C 134.964844 99.070312 146.894531 105.664062 154.253906 115.785156 L 178.40625 115.785156 C 175.351562 108.460938 170.863281 101.734375 165.078125 95.957031 C 153.445312 84.320312 137.976562 77.910156 121.519531 77.910156 L 59.867188 77.910156 C 59.867188 89.597656 69.339844 99.070312 81.023438 99.070312 "/></g><g clip-rule="nonzero" clip-path="url(#100f5c80ce)"><path style=" stroke:none;fill-rule:nonzero;fill:#434343;fill-opacity:1;" d="M 161.964844 139.515625 L 121.519531 139.515625 C 121.519531 151.246094 131.027344 160.753906 142.757812 160.753906 L 155.925781 160.753906 C 148.789062 172.273438 136.035156 179.960938 121.519531 179.960938 C 99.21875 179.960938 81.074219 161.816406 81.074219 139.515625 L 59.914062 139.515625 C 59.914062 155.972656 66.324219 171.441406 77.960938 183.074219 C 89.59375 194.714844 105.066406 201.121094 121.519531 201.121094 C 137.976562 201.121094 153.445312 194.714844 165.078125 183.074219 C 176.71875 171.441406 183.121094 155.972656 183.121094 139.515625 L 161.964844 139.515625 "/></g><g clip-rule="nonzero" clip-path="url(#3a746f0085)"><path style=" stroke:none;fill-rule:nonzero;fill:#434343;fill-opacity:1;" d="M 71.347656 128.5625 L 80.933594 128.5625 L 80.933594 117.757812 C 80.933594 112.089844 76.339844 107.492188 70.671875 107.492188 L 59.867188 107.492188 L 59.867188 117.082031 C 59.867188 123.421875 65.003906 128.5625 71.347656 128.5625 "/></g></g></g><g style="fill:#0bf592;fill-opacity:1;"><g transform="translate(8.169455, 340.740006)"><path style="stroke:none" d="M 15.171875 -16.859375 L 27.078125 -16.859375 L 27.078125 -1.296875 C 25.503906 -0.765625 23.863281 -0.34375 22.15625 -0.03125 C 20.445312 0.269531 18.523438 0.421875 16.390625 0.421875 C 11.910156 0.421875 8.460938 -0.894531 6.046875 -3.53125 C 3.640625 -6.164062 2.4375 -10.003906 2.4375 -15.046875 C 2.4375 -18.191406 3.039062 -20.910156 4.25 -23.203125 C 5.457031 -25.503906 7.226562 -27.285156 9.5625 -28.546875 C 11.90625 -29.804688 14.757812 -30.4375 18.125 -30.4375 C 19.71875 -30.4375 21.285156 -30.269531 22.828125 -29.9375 C 24.367188 -29.601562 25.769531 -29.15625 27.03125 -28.59375 L 24.9375 -23.5 C 24.007812 -23.976562 22.957031 -24.367188 21.78125 -24.671875 C 20.601562 -24.984375 19.367188 -25.140625 18.078125 -25.140625 C 16.234375 -25.140625 14.628906 -24.71875 13.265625 -23.875 C 11.898438 -23.039062 10.847656 -21.851562 10.109375 -20.3125 C 9.367188 -18.769531 9 -16.972656 9 -14.921875 C 9 -12.960938 9.265625 -11.222656 9.796875 -9.703125 C 10.328125 -8.191406 11.164062 -7.007812 12.3125 -6.15625 C 13.46875 -5.300781 14.96875 -4.875 16.8125 -4.875 C 17.71875 -4.875 18.476562 -4.914062 19.09375 -5 C 19.707031 -5.082031 20.296875 -5.179688 20.859375 -5.296875 L 20.859375 -11.5625 L 15.171875 -11.5625 Z M 15.171875 -16.859375 "/></g></g><g style="fill:#0bf592;fill-opacity:1;"><g transform="translate(36.332287, 340.740006)"><path style="stroke:none" d="M 3.78125 0 L 3.78125 -30.015625 L 10.140625 -30.015625 L 10.140625 -5.25 L 22.328125 -5.25 L 22.328125 0 Z M 3.78125 0 "/></g></g><g style="fill:#0bf592;fill-opacity:1;"><g transform="translate(57.811519, 340.740006)"><path style="stroke:none" d="M 21.0625 0 L 3.78125 0 L 3.78125 -30.015625 L 21.0625 -30.015625 L 21.0625 -24.8125 L 10.140625 -24.8125 L 10.140625 -18.203125 L 20.3125 -18.203125 L 20.3125 -13 L 10.140625 -13 L 10.140625 -5.25 L 21.0625 -5.25 Z M 21.0625 0 "/></g></g><g style="fill:#0bf592;fill-opacity:1;"><g transform="translate(79.080579, 340.740006)"><path style="stroke:none" d="M 28.375 0 L 22.03125 0 L 22.03125 -12.953125 L 10.140625 -12.953125 L 10.140625 0 L 3.78125 0 L 3.78125 -30.015625 L 10.140625 -30.015625 L 10.140625 -18.25 L 22.03125 -18.25 L 22.03125 -30.015625 L 28.375 -30.015625 Z M 28.375 0 "/></g></g><g style="fill:#0bf592;fill-opacity:1;"><g transform="translate(108.966857, 340.740006)"><path style="stroke:none" d="M 15.015625 0 L 1.34375 0 L 1.34375 -3.609375 L 5 -5.296875 L 5 -24.71875 L 1.34375 -26.40625 L 1.34375 -30.015625 L 15.015625 -30.015625 L 15.015625 -26.40625 L 11.359375 -24.71875 L 11.359375 -5.296875 L 15.015625 -3.609375 Z M 15.015625 0 "/></g></g><g style="fill:#0bf592;fill-opacity:1;"><g transform="translate(123.047884, 340.740006)"><path style="stroke:none" d="M 21.484375 -8.328125 C 21.484375 -5.660156 20.519531 -3.535156 18.59375 -1.953125 C 16.675781 -0.367188 13.953125 0.421875 10.421875 0.421875 C 7.253906 0.421875 4.425781 -0.179688 1.9375 -1.390625 L 1.9375 -7.3125 C 3.363281 -6.695312 4.835938 -6.128906 6.359375 -5.609375 C 7.890625 -5.085938 9.414062 -4.828125 10.9375 -4.828125 C 12.5 -4.828125 13.609375 -5.128906 14.265625 -5.734375 C 14.929688 -6.335938 15.265625 -7.101562 15.265625 -8.03125 C 15.265625 -8.789062 15.003906 -9.4375 14.484375 -9.96875 C 13.960938 -10.5 13.265625 -10.992188 12.390625 -11.453125 C 11.523438 -11.921875 10.535156 -12.421875 9.421875 -12.953125 C 8.722656 -13.285156 7.960938 -13.679688 7.140625 -14.140625 C 6.328125 -14.609375 5.550781 -15.1875 4.8125 -15.875 C 4.070312 -16.5625 3.460938 -17.394531 2.984375 -18.375 C 2.503906 -19.351562 2.265625 -20.53125 2.265625 -21.90625 C 2.265625 -24.59375 3.175781 -26.6875 5 -28.1875 C 6.820312 -29.6875 9.304688 -30.4375 12.453125 -30.4375 C 14.015625 -30.4375 15.492188 -30.253906 16.890625 -29.890625 C 18.296875 -29.523438 19.785156 -29.007812 21.359375 -28.34375 L 19.296875 -23.375 C 17.921875 -23.9375 16.6875 -24.367188 15.59375 -24.671875 C 14.5 -24.984375 13.378906 -25.140625 12.234375 -25.140625 C 11.023438 -25.140625 10.097656 -24.859375 9.453125 -24.296875 C 8.816406 -23.742188 8.5 -23.015625 8.5 -22.109375 C 8.5 -21.046875 8.972656 -20.207031 9.921875 -19.59375 C 10.878906 -18.976562 12.296875 -18.222656 14.171875 -17.328125 C 15.710938 -16.597656 17.019531 -15.835938 18.09375 -15.046875 C 19.175781 -14.265625 20.007812 -13.34375 20.59375 -12.28125 C 21.1875 -11.21875 21.484375 -9.898438 21.484375 -8.328125 Z M 21.484375 -8.328125 "/></g></g><g style="fill:#0bf592;fill-opacity:1;"><g transform="translate(143.938626, 340.740006)"><path style="stroke:none" d="M 31.03125 -15.046875 C 31.03125 -11.941406 30.519531 -9.234375 29.5 -6.921875 C 28.476562 -4.609375 26.90625 -2.804688 24.78125 -1.515625 C 22.664062 -0.222656 19.984375 0.421875 16.734375 0.421875 C 13.484375 0.421875 10.800781 -0.222656 8.6875 -1.515625 C 6.570312 -2.804688 5 -4.613281 3.96875 -6.9375 C 2.945312 -9.257812 2.4375 -11.976562 2.4375 -15.09375 C 2.4375 -18.207031 2.945312 -20.910156 3.96875 -23.203125 C 5 -25.503906 6.570312 -27.289062 8.6875 -28.5625 C 10.800781 -29.84375 13.5 -30.484375 16.78125 -30.484375 C 20.03125 -30.484375 22.707031 -29.84375 24.8125 -28.5625 C 26.914062 -27.289062 28.476562 -25.5 29.5 -23.1875 C 30.519531 -20.875 31.03125 -18.160156 31.03125 -15.046875 Z M 9.125 -15.046875 C 9.125 -11.910156 9.722656 -9.4375 10.921875 -7.625 C 12.128906 -5.820312 14.066406 -4.921875 16.734375 -4.921875 C 19.453125 -4.921875 21.398438 -5.820312 22.578125 -7.625 C 23.753906 -9.4375 24.34375 -11.910156 24.34375 -15.046875 C 24.34375 -18.191406 23.753906 -20.664062 22.578125 -22.46875 C 21.398438 -24.28125 19.46875 -25.1875 16.78125 -25.1875 C 14.082031 -25.1875 12.128906 -24.28125 10.921875 -22.46875 C 9.722656 -20.664062 9.125 -18.191406 9.125 -15.046875 Z M 9.125 -15.046875 "/></g></g><g style="fill:#0bf592;fill-opacity:1;"><g transform="translate(175.127997, 340.740006)"><path style="stroke:none" d="M 30.40625 0 L 22.328125 0 L 9.25 -22.703125 L 9.078125 -22.703125 C 9.140625 -21.273438 9.203125 -19.84375 9.265625 -18.40625 C 9.335938 -16.976562 9.398438 -15.550781 9.453125 -14.125 L 9.453125 0 L 3.78125 0 L 3.78125 -30.015625 L 11.8125 -30.015625 L 24.84375 -7.53125 L 24.96875 -7.53125 C 24.914062 -8.90625 24.859375 -10.273438 24.796875 -11.640625 C 24.742188 -13.015625 24.707031 -14.40625 24.6875 -15.8125 L 24.6875 -30.015625 L 30.40625 -30.015625 Z M 30.40625 0 "/></g></g><g style="fill:#0bf592;fill-opacity:1;"><g transform="translate(207.031957, 340.740006)"><path style="stroke:none" d=""/></g></g><g style="fill:#33644d;fill-opacity:1;"><g transform="translate(213.58741, 340.740006)"><path style="stroke:none" d="M 28.671875 -15.3125 C 28.671875 -10.226562 27.226562 -6.40625 24.34375 -3.84375 C 21.457031 -1.28125 17.4375 0 12.28125 0 L 3.78125 0 L 3.78125 -30.015625 L 13.203125 -30.015625 C 16.335938 -30.015625 19.0625 -29.453125 21.375 -28.328125 C 23.6875 -27.210938 25.476562 -25.5625 26.75 -23.375 C 28.03125 -21.1875 28.671875 -18.5 28.671875 -15.3125 Z M 22.078125 -15.140625 C 22.078125 -18.441406 21.347656 -20.878906 19.890625 -22.453125 C 18.429688 -24.023438 16.316406 -24.8125 13.546875 -24.8125 L 10.140625 -24.8125 L 10.140625 -5.25 L 12.859375 -5.25 C 19.003906 -5.25 22.078125 -8.546875 22.078125 -15.140625 Z M 22.078125 -15.140625 "/></g></g><g style="fill:#0bf592;fill-opacity:1;"><g transform="translate(242.427256, 340.740006)"><path style="stroke:none" d="M 21.0625 0 L 3.78125 0 L 3.78125 -30.015625 L 21.0625 -30.015625 L 21.0625 -24.8125 L 10.140625 -24.8125 L 10.140625 -18.203125 L 20.3125 -18.203125 L 20.3125 -13 L 10.140625 -13 L 10.140625 -5.25 L 21.0625 -5.25 Z M 21.0625 0 "/></g></g><g style="fill:#0bf592;fill-opacity:1;"><g transform="translate(263.696316, 340.740006)"><path style="stroke:none" d="M 27.328125 -30.015625 L 17.109375 0 L 10.171875 0 L 0 -30.015625 L 6.4375 -30.015625 L 12.0625 -12.15625 C 12.144531 -11.84375 12.296875 -11.269531 12.515625 -10.4375 C 12.742188 -9.613281 12.972656 -8.742188 13.203125 -7.828125 C 13.429688 -6.921875 13.585938 -6.160156 13.671875 -5.546875 C 13.753906 -6.160156 13.898438 -6.921875 14.109375 -7.828125 C 14.316406 -8.742188 14.523438 -9.613281 14.734375 -10.4375 C 14.941406 -11.269531 15.101562 -11.84375 15.21875 -12.15625 L 20.890625 -30.015625 Z M 27.328125 -30.015625 "/></g></g><g style="fill:#33644d;fill-opacity:1;"><g transform="translate(288.329593, 340.740006)"><path style="stroke:none" d="M 31.03125 -15.046875 C 31.03125 -11.941406 30.519531 -9.234375 29.5 -6.921875 C 28.476562 -4.609375 26.90625 -2.804688 24.78125 -1.515625 C 22.664062 -0.222656 19.984375 0.421875 16.734375 0.421875 C 13.484375 0.421875 10.800781 -0.222656 8.6875 -1.515625 C 6.570312 -2.804688 5 -4.613281 3.96875 -6.9375 C 2.945312 -9.257812 2.4375 -11.976562 2.4375 -15.09375 C 2.4375 -18.207031 2.945312 -20.910156 3.96875 -23.203125 C 5 -25.503906 6.570312 -27.289062 8.6875 -28.5625 C 10.800781 -29.84375 13.5 -30.484375 16.78125 -30.484375 C 20.03125 -30.484375 22.707031 -29.84375 24.8125 -28.5625 C 26.914062 -27.289062 28.476562 -25.5 29.5 -23.1875 C 30.519531 -20.875 31.03125 -18.160156 31.03125 -15.046875 Z M 9.125 -15.046875 C 9.125 -11.910156 9.722656 -9.4375 10.921875 -7.625 C 12.128906 -5.820312 14.066406 -4.921875 16.734375 -4.921875 C 19.453125 -4.921875 21.398438 -5.820312 22.578125 -7.625 C 23.753906 -9.4375 24.34375 -11.910156 24.34375 -15.046875 C 24.34375 -18.191406 23.753906 -20.664062 22.578125 -22.46875 C 21.398438 -24.28125 19.46875 -25.1875 16.78125 -25.1875 C 14.082031 -25.1875 12.128906 -24.28125 10.921875 -22.46875 C 9.722656 -20.664062 9.125 -18.191406 9.125 -15.046875 Z M 9.125 -15.046875 "/></g></g><g style="fill:#0bf592;fill-opacity:1;"><g transform="translate(319.524903, 340.740006)"><path style="stroke:none" d="M 13.375 -30.015625 C 17.238281 -30.015625 20.0625 -29.179688 21.84375 -27.515625 C 23.625 -25.847656 24.515625 -23.554688 24.515625 -20.640625 C 24.515625 -18.878906 24.148438 -17.238281 23.421875 -15.71875 C 22.691406 -14.207031 21.476562 -12.988281 19.78125 -12.0625 C 18.082031 -11.144531 15.773438 -10.6875 12.859375 -10.6875 L 10.140625 -10.6875 L 10.140625 0 L 3.78125 0 L 3.78125 -30.015625 Z M 13.03125 -24.8125 L 10.140625 -24.8125 L 10.140625 -15.890625 L 12.234375 -15.890625 C 14.023438 -15.890625 15.445312 -16.242188 16.5 -16.953125 C 17.550781 -17.671875 18.078125 -18.832031 18.078125 -20.4375 C 18.078125 -23.351562 16.394531 -24.8125 13.03125 -24.8125 Z M 13.03125 -24.8125 "/></g></g><g style="fill:#0bf592;fill-opacity:1;"><g transform="translate(343.652354, 340.740006)"><path style="stroke:none" d="M 21.484375 -8.328125 C 21.484375 -5.660156 20.519531 -3.535156 18.59375 -1.953125 C 16.675781 -0.367188 13.953125 0.421875 10.421875 0.421875 C 7.253906 0.421875 4.425781 -0.179688 1.9375 -1.390625 L 1.9375 -7.3125 C 3.363281 -6.695312 4.835938 -6.128906 6.359375 -5.609375 C 7.890625 -5.085938 9.414062 -4.828125 10.9375 -4.828125 C 12.5 -4.828125 13.609375 -5.128906 14.265625 -5.734375 C 14.929688 -6.335938 15.265625 -7.101562 15.265625 -8.03125 C 15.265625 -8.789062 15.003906 -9.4375 14.484375 -9.96875 C 13.960938 -10.5 13.265625 -10.992188 12.390625 -11.453125 C 11.523438 -11.921875 10.535156 -12.421875 9.421875 -12.953125 C 8.722656 -13.285156 7.960938 -13.679688 7.140625 -14.140625 C 6.328125 -14.609375 5.550781 -15.1875 4.8125 -15.875 C 4.070312 -16.5625 3.460938 -17.394531 2.984375 -18.375 C 2.503906 -19.351562 2.265625 -20.53125 2.265625 -21.90625 C 2.265625 -24.59375 3.175781 -26.6875 5 -28.1875 C 6.820312 -29.6875 9.304688 -30.4375 12.453125 -30.4375 C 14.015625 -30.4375 15.492188 -30.253906 16.890625 -29.890625 C 18.296875 -29.523438 19.785156 -29.007812 21.359375 -28.34375 L 19.296875 -23.375 C 17.921875 -23.9375 16.6875 -24.367188 15.59375 -24.671875 C 14.5 -24.984375 13.378906 -25.140625 12.234375 -25.140625 C 11.023438 -25.140625 10.097656 -24.859375 9.453125 -24.296875 C 8.816406 -23.742188 8.5 -23.015625 8.5 -22.109375 C 8.5 -21.046875 8.972656 -20.207031 9.921875 -19.59375 C 10.878906 -18.976562 12.296875 -18.222656 14.171875 -17.328125 C 15.710938 -16.597656 17.019531 -15.835938 18.09375 -15.046875 C 19.175781 -14.265625 20.007812 -13.34375 20.59375 -12.28125 C 21.1875 -11.21875 21.484375 -9.898438 21.484375 -8.328125 Z M 21.484375 -8.328125 "/></g></g></g></svg>