<svg xmlns="http://www.w3.org/2000/svg" xmlns:xlink="http://www.w3.org/1999/xlink" width="500" zoomAndPan="magnify" viewBox="0 0 375 374.999991" height="500" preserveAspectRatio="xMidYMid meet" version="1.2"><defs><clipPath id="80db9e3c36"><path d="M 0.359375 1.222656 L 256.636719 1.222656 L 256.636719 295.542969 L 0.359375 295.542969 Z M 0.359375 1.222656 "/></clipPath><clipPath id="4d2a40e9e8"><path d="M 131.746094 2.097656 L 253.390625 72.429688 C 255.402344 73.59375 256.636719 75.738281 256.636719 78.058594 L 256.636719 218.269531 C 256.636719 220.589844 255.402344 222.734375 253.390625 223.894531 L 131.746094 294.230469 C 129.738281 295.390625 127.261719 295.390625 125.253906 294.230469 L 3.605469 223.894531 C 1.597656 222.734375 0.359375 220.589844 0.359375 218.269531 L 0.359375 78.058594 C 0.359375 75.738281 1.597656 73.59375 3.605469 72.429688 L 125.253906 2.097656 C 127.261719 0.933594 129.738281 0.933594 131.746094 2.097656 Z M 131.746094 2.097656 "/></clipPath><clipPath id="298888cd91"><path d="M 0.359375 0.222656 L 256.636719 0.222656 L 256.636719 294.398438 L 0.359375 294.398438 Z M 0.359375 0.222656 "/></clipPath><clipPath id="eb7870cacd"><path d="M 131.746094 1.097656 L 253.390625 71.429688 C 255.402344 72.59375 256.636719 74.738281 256.636719 77.058594 L 256.636719 217.269531 C 256.636719 219.589844 255.402344 221.734375 253.390625 222.894531 L 131.746094 293.230469 C 129.738281 294.390625 127.261719 294.390625 125.253906 293.230469 L 3.605469 222.894531 C 1.597656 221.734375 0.359375 219.589844 0.359375 217.269531 L 0.359375 77.058594 C 0.359375 74.738281 1.597656 72.59375 3.605469 71.429688 L 125.253906 1.097656 C 127.261719 -0.0664062 129.738281 -0.0664062 131.746094 1.097656 Z M 131.746094 1.097656 "/></clipPath><clipPath id="81d905bb60"><rect x="0" width="257" y="0" height="295"/></clipPath><clipPath id="8e16f721bc"><path d="M 23.347656 27 L 233.652344 27 L 233.652344 270 L 23.347656 270 Z M 23.347656 27 "/></clipPath><clipPath id="6603e0f8c7"><path d="M 131.742188 27.921875 L 230.410156 85.332031 C 232.417969 86.5 233.652344 88.644531 233.652344 90.96875 L 233.652344 205.824219 C 233.652344 208.148438 232.417969 210.292969 230.410156 211.460938 L 131.742188 268.867188 C 129.738281 270.035156 127.261719 270.035156 125.257812 268.867188 L 26.589844 211.460938 C 24.582031 210.292969 23.347656 208.148438 23.347656 205.824219 L 23.347656 90.96875 C 23.347656 88.644531 24.582031 86.5 26.589844 85.332031 L 125.257812 27.921875 C 127.261719 26.757812 129.738281 26.757812 131.742188 27.921875 Z M 131.742188 27.921875 "/></clipPath><clipPath id="b10afc8e94"><path d="M 0.347656 0 L 210.652344 0 L 210.652344 243 L 0.347656 243 Z M 0.347656 0 "/></clipPath><clipPath id="c1869e6007"><path d="M 108.742188 0.921875 L 207.410156 58.332031 C 209.417969 59.5 210.652344 61.644531 210.652344 63.96875 L 210.652344 178.824219 C 210.652344 181.148438 209.417969 183.292969 207.410156 184.460938 L 108.742188 241.867188 C 106.738281 243.035156 104.261719 243.035156 102.257812 241.867188 L 3.589844 184.460938 C 1.582031 183.292969 0.347656 181.148438 0.347656 178.824219 L 0.347656 63.96875 C 0.347656 61.644531 1.582031 59.5 3.589844 58.332031 L 102.257812 0.921875 C 104.261719 -0.242188 106.738281 -0.242188 108.742188 0.921875 Z M 108.742188 0.921875 "/></clipPath><clipPath id="a42d7f1938"><rect x="0" width="211" y="0" height="243"/></clipPath><clipPath id="00f22a3b6f"><path d="M 34.21875 39.425781 L 222.777344 39.425781 L 222.777344 257.445312 L 34.21875 257.445312 Z M 34.21875 39.425781 "/></clipPath><clipPath id="896788718c"><path d="M 131.742188 40.574219 L 219.539062 91.65625 C 221.542969 92.824219 222.777344 94.972656 222.777344 97.292969 L 222.777344 199.5 C 222.777344 201.820312 221.542969 203.96875 219.539062 205.136719 L 131.742188 256.21875 C 129.738281 257.382812 127.261719 257.382812 125.257812 256.21875 L 37.460938 205.136719 C 35.457031 203.96875 34.21875 201.820312 34.21875 199.5 L 34.21875 97.292969 C 34.21875 94.972656 35.457031 92.824219 37.460938 91.65625 L 125.257812 40.574219 C 127.261719 39.410156 129.738281 39.410156 131.742188 40.574219 Z M 131.742188 40.574219 "/></clipPath><clipPath id="cffa32241e"><path d="M 0.21875 0.425781 L 188.777344 0.425781 L 188.777344 218.445312 L 0.21875 218.445312 Z M 0.21875 0.425781 "/></clipPath><clipPath id="027202206a"><path d="M 97.742188 1.574219 L 185.539062 52.65625 C 187.542969 53.824219 188.777344 55.972656 188.777344 58.292969 L 188.777344 160.5 C 188.777344 162.820312 187.542969 164.96875 185.539062 166.136719 L 97.742188 217.21875 C 95.738281 218.382812 93.261719 218.382812 91.257812 217.21875 L 3.460938 166.136719 C 1.457031 164.96875 0.21875 162.820312 0.21875 160.5 L 0.21875 58.292969 C 0.21875 55.972656 1.457031 53.824219 3.460938 52.65625 L 91.257812 1.574219 C 93.261719 0.410156 95.738281 0.410156 97.742188 1.574219 Z M 97.742188 1.574219 "/></clipPath><clipPath id="11323f76d1"><rect x="0" width="189" y="0" height="219"/></clipPath><clipPath id="7a815cb6b2"><path d="M 62.917969 82.816406 L 190 82.816406 L 190 124 L 62.917969 124 Z M 62.917969 82.816406 "/></clipPath><clipPath id="831ea51a9b"><path d="M 62.917969 148.308594 L 193.789062 148.308594 L 193.789062 213.6875 L 62.917969 213.6875 Z M 62.917969 148.308594 "/></clipPath><clipPath id="8f17a267b1"><path d="M 62.917969 114 L 86 114 L 86 137 L 62.917969 137 Z M 62.917969 114 "/></clipPath><clipPath id="ab7d87f997"><rect x="0" width="257" y="0" height="298"/></clipPath></defs><g id="6f5c857267"><g transform="matrix(1,0,0,1,59,31)"><g clip-path="url(#ab7d87f997)"><g clip-rule="nonzero" clip-path="url(#80db9e3c36)"><g clip-rule="nonzero" clip-path="url(#4d2a40e9e8)"><g transform="matrix(1,0,0,1,0,1)"><g id="b972970061" clip-path="url(#81d905bb60)"><g clip-rule="nonzero" clip-path="url(#298888cd91)"><g clip-rule="nonzero" clip-path="url(#eb7870cacd)"><path style=" stroke:none;fill-rule:nonzero;fill:#0bf592;fill-opacity:1;" d="M 0.359375 -0.78125 L 256.636719 -0.78125 L 256.636719 295.542969 L 0.359375 295.542969 Z M 0.359375 -0.78125 "/></g></g></g></g></g></g><g clip-rule="nonzero" clip-path="url(#8e16f721bc)"><g clip-rule="nonzero" clip-path="url(#6603e0f8c7)"><g transform="matrix(1,0,0,1,23,27)"><g id="e748af1734" clip-path="url(#a42d7f1938)"><g clip-rule="nonzero" clip-path="url(#b10afc8e94)"><g clip-rule="nonzero" clip-path="url(#c1869e6007)"><path style=" stroke:none;fill-rule:nonzero;fill:#33644d;fill-opacity:1;" d="M 0.347656 -0.960938 L 210.652344 -0.960938 L 210.652344 243.84375 L 0.347656 243.84375 Z M 0.347656 -0.960938 "/></g></g></g></g></g></g><g clip-rule="nonzero" clip-path="url(#00f22a3b6f)"><g clip-rule="nonzero" clip-path="url(#896788718c)"><g transform="matrix(1,0,0,1,34,39)"><g id="4ac6404efc" clip-path="url(#11323f76d1)"><g clip-rule="nonzero" clip-path="url(#cffa32241e)"><g clip-rule="nonzero" clip-path="url(#027202206a)"><path style=" stroke:none;fill-rule:nonzero;fill:#0bf592;fill-opacity:1;" d="M 0.21875 -0.3125 L 188.78125 -0.3125 L 188.78125 219.183594 L 0.21875 219.183594 Z M 0.21875 -0.3125 "/></g></g></g></g></g></g><g clip-rule="nonzero" clip-path="url(#7a815cb6b2)"><path style=" stroke:none;fill-rule:nonzero;fill:#434343;fill-opacity:1;" d="M 85.433594 105.355469 L 128.523438 105.355469 C 142.828125 105.355469 155.519531 112.371094 163.351562 123.140625 L 189.046875 123.140625 C 185.796875 115.347656 181.023438 108.191406 174.871094 102.042969 C 162.492188 89.660156 146.03125 82.839844 128.523438 82.839844 L 62.917969 82.839844 C 62.917969 95.273438 73 105.355469 85.433594 105.355469 "/></g><g clip-rule="nonzero" clip-path="url(#831ea51a9b)"><path style=" stroke:none;fill-rule:nonzero;fill:#434343;fill-opacity:1;" d="M 171.554688 148.390625 L 128.519531 148.390625 C 128.519531 160.871094 138.640625 170.992188 151.121094 170.992188 L 165.128906 170.992188 C 157.535156 183.246094 143.96875 191.425781 128.523438 191.425781 C 104.789062 191.425781 85.484375 172.121094 85.484375 148.390625 L 62.972656 148.390625 C 62.972656 165.902344 69.789062 182.359375 82.171875 194.738281 C 94.550781 207.121094 111.011719 213.941406 128.523438 213.941406 C 146.03125 213.941406 162.492188 207.121094 174.871094 194.738281 C 187.253906 182.359375 194.070312 165.902344 194.070312 148.390625 L 171.554688 148.390625 "/></g><g clip-rule="nonzero" clip-path="url(#8f17a267b1)"><path style=" stroke:none;fill-rule:nonzero;fill:#434343;fill-opacity:1;" d="M 75.132812 136.734375 L 85.335938 136.734375 L 85.335938 125.238281 C 85.335938 119.207031 80.445312 114.316406 74.414062 114.316406 L 62.917969 114.316406 L 62.917969 124.519531 C 62.917969 131.265625 68.386719 136.734375 75.132812 136.734375 "/></g></g></g></g></svg>