<svg xmlns="http://www.w3.org/2000/svg" xmlns:xlink="http://www.w3.org/1999/xlink" width="500" zoomAndPan="magnify" viewBox="0 0 375 374.999991" height="500" preserveAspectRatio="xMidYMid meet" version="1.2"><defs><clipPath id="5d4435cc42"><path d="M 18.121094 147.300781 L 96 147.300781 L 96 173 L 18.121094 173 Z M 18.121094 147.300781 "/></clipPath><clipPath id="781ca78ad5"><path d="M 18.121094 187.445312 L 98.371094 187.445312 L 98.371094 227.550781 L 18.121094 227.550781 Z M 18.121094 187.445312 "/></clipPath><clipPath id="2a6dcd8fc6"><path d="M 18.121094 166 L 32 166 L 32 181 L 18.121094 181 Z M 18.121094 166 "/></clipPath><clipPath id="cac9e51f9d"><path d="M 17 15.300781 L 264 15.300781 L 264 91.417969 L 17 91.417969 Z M 17 15.300781 "/></clipPath><clipPath id="a620f1de0f"><path d="M 262.957031 56.601562 L 244.585938 88.175781 C 243.417969 90.183594 241.269531 91.417969 238.949219 91.417969 L 41.945312 91.417969 C 39.625 91.417969 37.476562 90.183594 36.3125 88.175781 L 17.9375 56.601562 C 16.773438 54.597656 16.773438 52.121094 17.9375 50.117188 L 36.3125 18.539062 C 37.476562 16.535156 39.625 15.300781 41.945312 15.300781 L 238.949219 15.300781 C 241.269531 15.300781 243.417969 16.535156 244.585938 18.539062 L 262.957031 50.117188 C 264.121094 52.121094 264.121094 54.597656 262.957031 56.601562 Z M 262.957031 56.601562 "/></clipPath><clipPath id="f0c6bff83c"><rect x="0" width="281" y="0" height="107"/></clipPath></defs><g id="269e49f51e"><g clip-rule="nonzero" clip-path="url(#5d4435cc42)"><path style=" stroke:none;fill-rule:nonzero;fill:#33644d;fill-opacity:1;" d="M 31.921875 161.117188 L 58.332031 161.117188 C 67.101562 161.117188 74.882812 165.417969 79.679688 172.019531 L 95.433594 172.019531 C 93.441406 167.242188 90.515625 162.855469 86.742188 159.085938 C 79.15625 151.496094 69.066406 147.316406 58.332031 147.316406 L 18.121094 147.316406 C 18.121094 154.9375 24.300781 161.117188 31.921875 161.117188 "/></g><g clip-rule="nonzero" clip-path="url(#781ca78ad5)"><path style=" stroke:none;fill-rule:nonzero;fill:#33644d;fill-opacity:1;" d="M 84.710938 187.496094 L 58.332031 187.496094 C 58.332031 195.148438 64.535156 201.347656 72.183594 201.347656 L 80.769531 201.347656 C 76.117188 208.859375 67.800781 213.875 58.332031 213.875 C 43.785156 213.875 31.953125 202.042969 31.953125 187.496094 L 18.152344 187.496094 C 18.152344 198.230469 22.332031 208.316406 29.921875 215.90625 C 37.511719 223.496094 47.601562 227.675781 58.332031 227.675781 C 69.066406 227.675781 79.15625 223.496094 86.742188 215.90625 C 94.332031 208.316406 98.511719 198.230469 98.511719 187.496094 L 84.710938 187.496094 "/></g><g clip-rule="nonzero" clip-path="url(#2a6dcd8fc6)"><path style=" stroke:none;fill-rule:nonzero;fill:#33644d;fill-opacity:1;" d="M 25.609375 180.351562 L 31.863281 180.351562 L 31.863281 173.304688 C 31.863281 169.609375 28.863281 166.609375 25.167969 166.609375 L 18.121094 166.609375 L 18.121094 172.863281 C 18.121094 177 21.472656 180.351562 25.609375 180.351562 "/></g><g transform="matrix(1,0,0,1,92,132)"><g clip-path="url(#f0c6bff83c)"><g clip-rule="nonzero" clip-path="url(#cac9e51f9d)"><g clip-rule="nonzero" clip-path="url(#a620f1de0f)"><path style="fill:none;stroke-width:4.498592;stroke-linecap:butt;stroke-linejoin:miter;stroke:#989691;stroke-opacity:1;stroke-miterlimit:4;" d="M 148.096212 24.77298 L 137.077005 43.711584 C 136.376442 44.915895 135.087783 45.656288 133.696031 45.656288 L 15.530666 45.656288 C 14.138914 45.656288 12.850255 44.915895 12.152036 43.711584 L 1.130485 24.77298 C 0.432266 23.571012 0.432266 22.08554 1.130485 20.883572 L 12.152036 1.942624 C 12.850255 0.740657 14.138914 0.000263511 15.530666 0.000263511 L 133.696031 0.000263511 C 135.087783 0.000263511 136.376442 0.740657 137.077005 1.942624 L 148.096212 20.883572 C 148.794431 22.08554 148.794431 23.571012 148.096212 24.77298 Z M 148.096212 24.77298 " transform="matrix(1.667188,0,0,1.667188,16.052768,15.300342)"/></g></g><g style="fill:#33644d;fill-opacity:1;"><g transform="translate(40.510831, 70.438946)"><path style="stroke:none" d="M 37.34375 -19.921875 C 37.34375 -13.316406 35.460938 -8.34375 31.703125 -5 C 27.941406 -1.664062 22.703125 0 15.984375 0 L 4.921875 0 L 4.921875 -39.09375 L 17.1875 -39.09375 C 21.28125 -39.09375 24.832031 -38.363281 27.84375 -36.90625 C 30.851562 -35.445312 33.1875 -33.289062 34.84375 -30.4375 C 36.507812 -27.59375 37.34375 -24.085938 37.34375 -19.921875 Z M 28.75 -19.703125 C 28.75 -24.015625 27.796875 -27.191406 25.890625 -29.234375 C 23.992188 -31.273438 21.238281 -32.296875 17.625 -32.296875 L 13.1875 -32.296875 L 13.1875 -6.84375 L 16.75 -6.84375 C 24.75 -6.84375 28.75 -11.128906 28.75 -19.703125 Z M 28.75 -19.703125 "/></g></g><g style="fill:#0bf592;fill-opacity:1;"><g transform="translate(78.074666, 70.438946)"><path style="stroke:none" d="M 27.4375 0 L 4.921875 0 L 4.921875 -39.09375 L 27.4375 -39.09375 L 27.4375 -32.296875 L 13.1875 -32.296875 L 13.1875 -23.703125 L 26.4375 -23.703125 L 26.4375 -16.921875 L 13.1875 -16.921875 L 13.1875 -6.84375 L 27.4375 -6.84375 Z M 27.4375 0 "/></g></g><g style="fill:#0bf592;fill-opacity:1;"><g transform="translate(105.767274, 70.438946)"><path style="stroke:none" d="M 35.59375 -39.09375 L 22.28125 0 L 13.25 0 L 0 -39.09375 L 8.375 -39.09375 L 15.71875 -15.828125 C 15.820312 -15.421875 16.019531 -14.675781 16.3125 -13.59375 C 16.601562 -12.519531 16.894531 -11.390625 17.1875 -10.203125 C 17.476562 -9.023438 17.679688 -8.035156 17.796875 -7.234375 C 17.898438 -8.035156 18.085938 -9.023438 18.359375 -10.203125 C 18.640625 -11.390625 18.914062 -12.519531 19.1875 -13.59375 C 19.457031 -14.675781 19.664062 -15.421875 19.8125 -15.828125 L 27.203125 -39.09375 Z M 35.59375 -39.09375 "/></g></g><g style="fill:#33644d;fill-opacity:1;"><g transform="translate(137.858994, 70.438946)"><path style="stroke:none" d="M 40.40625 -19.59375 C 40.40625 -15.539062 39.738281 -12.007812 38.40625 -9 C 37.070312 -5.988281 35.023438 -3.644531 32.265625 -1.96875 C 29.515625 -0.289062 26.023438 0.546875 21.796875 0.546875 C 17.554688 0.546875 14.054688 -0.289062 11.296875 -1.96875 C 8.546875 -3.644531 6.503906 -6 5.171875 -9.03125 C 3.835938 -12.0625 3.171875 -15.601562 3.171875 -19.65625 C 3.171875 -23.707031 3.835938 -27.226562 5.171875 -30.21875 C 6.503906 -33.21875 8.546875 -35.546875 11.296875 -37.203125 C 14.054688 -38.859375 17.570312 -39.6875 21.84375 -39.6875 C 26.082031 -39.6875 29.566406 -38.859375 32.296875 -37.203125 C 35.035156 -35.546875 37.070312 -33.207031 38.40625 -30.1875 C 39.738281 -27.175781 40.40625 -23.644531 40.40625 -19.59375 Z M 11.875 -19.59375 C 11.875 -15.507812 12.660156 -12.289062 14.234375 -9.9375 C 15.804688 -7.582031 18.328125 -6.40625 21.796875 -6.40625 C 25.328125 -6.40625 27.859375 -7.582031 29.390625 -9.9375 C 30.929688 -12.289062 31.703125 -15.507812 31.703125 -19.59375 C 31.703125 -23.6875 30.929688 -26.910156 29.390625 -29.265625 C 27.859375 -31.617188 25.34375 -32.796875 21.84375 -32.796875 C 18.34375 -32.796875 15.804688 -31.617188 14.234375 -29.265625 C 12.660156 -26.910156 11.875 -23.6875 11.875 -19.59375 Z M 11.875 -19.59375 "/></g></g><g style="fill:#0bf592;fill-opacity:1;"><g transform="translate(178.470657, 70.438946)"><path style="stroke:none" d="M 17.40625 -39.09375 C 22.445312 -39.09375 26.125 -38.003906 28.4375 -35.828125 C 30.757812 -33.660156 31.921875 -30.675781 31.921875 -26.875 C 31.921875 -24.582031 31.445312 -22.445312 30.5 -20.46875 C 29.550781 -18.5 27.972656 -16.910156 25.765625 -15.703125 C 23.554688 -14.503906 20.550781 -13.90625 16.75 -13.90625 L 13.1875 -13.90625 L 13.1875 0 L 4.921875 0 L 4.921875 -39.09375 Z M 16.96875 -32.296875 L 13.1875 -32.296875 L 13.1875 -20.703125 L 15.9375 -20.703125 C 18.269531 -20.703125 20.117188 -21.164062 21.484375 -22.09375 C 22.859375 -23.019531 23.546875 -24.523438 23.546875 -26.609375 C 23.546875 -30.398438 21.351562 -32.296875 16.96875 -32.296875 Z M 16.96875 -32.296875 "/></g></g><g style="fill:#0bf592;fill-opacity:1;"><g transform="translate(209.884955, 70.438946)"><path style="stroke:none" d="M 27.984375 -10.84375 C 27.984375 -7.375 26.726562 -4.609375 24.21875 -2.546875 C 21.71875 -0.484375 18.171875 0.546875 13.578125 0.546875 C 9.453125 0.546875 5.765625 -0.238281 2.515625 -1.8125 L 2.515625 -9.53125 C 4.378906 -8.726562 6.304688 -7.988281 8.296875 -7.3125 C 10.285156 -6.632812 12.265625 -6.296875 14.234375 -6.296875 C 16.273438 -6.296875 17.722656 -6.6875 18.578125 -7.46875 C 19.441406 -8.257812 19.875 -9.253906 19.875 -10.453125 C 19.875 -11.441406 19.535156 -12.28125 18.859375 -12.96875 C 18.179688 -13.664062 17.273438 -14.316406 16.140625 -14.921875 C 15.015625 -15.523438 13.722656 -16.171875 12.265625 -16.859375 C 11.347656 -17.296875 10.359375 -17.816406 9.296875 -18.421875 C 8.242188 -19.023438 7.234375 -19.773438 6.265625 -20.671875 C 5.296875 -21.566406 4.5 -22.648438 3.875 -23.921875 C 3.257812 -25.203125 2.953125 -26.738281 2.953125 -28.53125 C 2.953125 -32.03125 4.140625 -34.753906 6.515625 -36.703125 C 8.890625 -38.660156 12.117188 -39.640625 16.203125 -39.640625 C 18.242188 -39.640625 20.175781 -39.398438 22 -38.921875 C 23.832031 -38.453125 25.769531 -37.78125 27.8125 -36.90625 L 25.125 -30.4375 C 23.34375 -31.164062 21.738281 -31.726562 20.3125 -32.125 C 18.882812 -32.53125 17.425781 -32.734375 15.9375 -32.734375 C 14.363281 -32.734375 13.15625 -32.367188 12.3125 -31.640625 C 11.476562 -30.910156 11.0625 -29.960938 11.0625 -28.796875 C 11.0625 -27.410156 11.679688 -26.316406 12.921875 -25.515625 C 14.160156 -24.710938 16.003906 -23.726562 18.453125 -22.5625 C 20.460938 -21.613281 22.164062 -20.625 23.5625 -19.59375 C 24.96875 -18.570312 26.054688 -17.367188 26.828125 -15.984375 C 27.597656 -14.597656 27.984375 -12.882812 27.984375 -10.84375 Z M 27.984375 -10.84375 "/></g></g></g></g></g></svg>