<svg xmlns="http://www.w3.org/2000/svg" xmlns:xlink="http://www.w3.org/1999/xlink" width="400" zoomAndPan="magnify" viewBox="0 0 300 74.999997" height="100" preserveAspectRatio="xMidYMid meet" version="1.2"><defs><clipPath id="c5e318a8ec"><path d="M 21.542969 7.5 L 81 7.5 L 81 27 L 21.542969 27 Z M 21.542969 7.5 "/></clipPath><clipPath id="eb06d72b17"><path d="M 21.542969 37.949219 L 82.292969 37.949219 L 82.292969 68.25 L 21.542969 68.25 Z M 21.542969 37.949219 "/></clipPath><clipPath id="9605a5ddbc"><path d="M 21.542969 22 L 32 22 L 32 33 L 21.542969 33 Z M 21.542969 22 "/></clipPath><clipPath id="a9d7ecb4a8"><path d="M 16 7.5 L 203.625 7.5 L 203.625 65.226562 L 16 65.226562 Z M 16 7.5 "/></clipPath><clipPath id="19dafe00b4"><path d="M 202.542969 39.605469 L 189.519531 61.988281 C 188.355469 63.992188 186.207031 65.226562 183.886719 65.226562 L 36.289062 65.226562 C 33.96875 65.226562 31.824219 63.992188 30.65625 61.988281 L 17.632812 39.605469 C 16.464844 37.601562 16.464844 35.125 17.632812 33.125 L 30.65625 10.742188 C 31.824219 8.734375 33.96875 7.5 36.289062 7.5 L 183.886719 7.5 C 186.207031 7.5 188.355469 8.734375 189.519531 10.742188 L 202.542969 33.125 C 203.710938 35.125 203.710938 37.601562 202.542969 39.605469 Z M 202.542969 39.605469 "/></clipPath><clipPath id="1c571ea1de"><rect x="0" width="220" y="0" height="75"/></clipPath></defs><g id="c28066afa0"><g clip-rule="nonzero" clip-path="url(#c5e318a8ec)"><path style=" stroke:none;fill-rule:nonzero;fill:#33644d;fill-opacity:1;" d="M 32.007812 17.980469 L 52.042969 17.980469 C 58.691406 17.980469 64.59375 21.238281 68.234375 26.246094 L 80.179688 26.246094 C 78.667969 22.625 76.449219 19.296875 73.589844 16.4375 C 67.832031 10.683594 60.179688 7.511719 52.042969 7.511719 L 21.542969 7.511719 C 21.542969 13.292969 26.226562 17.980469 32.007812 17.980469 "/></g><g clip-rule="nonzero" clip-path="url(#eb06d72b17)"><path style=" stroke:none;fill-rule:nonzero;fill:#33644d;fill-opacity:1;" d="M 72.046875 37.988281 L 52.039062 37.988281 C 52.039062 43.789062 56.746094 48.492188 62.546875 48.492188 L 69.058594 48.492188 C 65.53125 54.191406 59.222656 57.996094 52.042969 57.996094 C 41.007812 57.996094 32.03125 49.019531 32.03125 37.988281 L 21.566406 37.988281 C 21.566406 46.128906 24.738281 53.777344 30.492188 59.535156 C 36.25 65.292969 43.902344 68.460938 52.042969 68.460938 C 60.179688 68.460938 67.832031 65.292969 73.589844 59.535156 C 79.347656 53.777344 82.515625 46.128906 82.515625 37.988281 L 72.046875 37.988281 "/></g><g clip-rule="nonzero" clip-path="url(#9605a5ddbc)"><path style=" stroke:none;fill-rule:nonzero;fill:#33644d;fill-opacity:1;" d="M 27.222656 32.566406 L 31.964844 32.566406 L 31.964844 27.222656 C 31.964844 24.417969 29.691406 22.144531 26.886719 22.144531 L 21.542969 22.144531 L 21.542969 26.890625 C 21.542969 30.027344 24.085938 32.566406 27.222656 32.566406 "/></g><g transform="matrix(1,0,0,1,74,-0.000000000000001893)"><g clip-path="url(#1c571ea1de)"><g clip-rule="nonzero" clip-path="url(#a9d7ecb4a8)"><g clip-rule="nonzero" clip-path="url(#19dafe00b4)"><path style="fill:none;stroke-width:5.931653;stroke-linecap:butt;stroke-linejoin:miter;stroke:#989691;stroke-opacity:1;stroke-miterlimit:4;" d="M 147.734623 25.391802 L 137.434555 43.094079 C 136.513913 44.678943 134.814742 45.655194 132.979636 45.655194 L 16.246557 45.655194 C 14.411452 45.655194 12.71537 44.678943 11.791639 43.094079 L 1.49157 25.391802 C 0.567839 23.806938 0.567839 21.848257 1.49157 20.266483 L 11.791639 2.564206 C 12.71537 0.976253 14.411452 0.00000165493 16.246557 0.00000165493 L 132.979636 0.00000165493 C 134.814742 0.00000165493 136.513913 0.976253 137.434555 2.564206 L 147.734623 20.266483 C 148.658355 21.848257 148.658355 23.806938 147.734623 25.391802 Z M 147.734623 25.391802 " transform="matrix(1.264403,0,0,1.264403,15.746866,7.499998)"/></g></g><g style="fill:#33644d;fill-opacity:1;"><g transform="translate(34.295969, 49.317361)"><path style="stroke:none" d="M 28.3125 -15.109375 C 28.3125 -10.097656 26.882812 -6.328125 24.03125 -3.796875 C 21.1875 -1.265625 17.21875 0 12.125 0 L 3.734375 0 L 3.734375 -29.640625 L 13.03125 -29.640625 C 16.132812 -29.640625 18.828125 -29.085938 21.109375 -27.984375 C 23.390625 -26.878906 25.160156 -25.242188 26.421875 -23.078125 C 27.679688 -20.921875 28.3125 -18.265625 28.3125 -15.109375 Z M 21.796875 -14.953125 C 21.796875 -18.210938 21.078125 -20.617188 19.640625 -22.171875 C 18.203125 -23.722656 16.113281 -24.5 13.375 -24.5 L 10 -24.5 L 10 -5.1875 L 12.703125 -5.1875 C 18.765625 -5.1875 21.796875 -8.441406 21.796875 -14.953125 Z M 21.796875 -14.953125 "/></g></g><g style="fill:#0bf592;fill-opacity:1;"><g transform="translate(62.784549, 49.317361)"><path style="stroke:none" d="M 20.796875 0 L 3.734375 0 L 3.734375 -29.640625 L 20.796875 -29.640625 L 20.796875 -24.5 L 10 -24.5 L 10 -17.96875 L 20.046875 -17.96875 L 20.046875 -12.828125 L 10 -12.828125 L 10 -5.1875 L 20.796875 -5.1875 Z M 20.796875 0 "/></g></g><g style="fill:#0bf592;fill-opacity:1;"><g transform="translate(83.786747, 49.317361)"><path style="stroke:none" d="M 26.984375 -29.640625 L 16.890625 0 L 10.046875 0 L 0 -29.640625 L 6.359375 -29.640625 L 11.921875 -12 C 12.003906 -11.695312 12.15625 -11.132812 12.375 -10.3125 C 12.59375 -9.5 12.8125 -8.640625 13.03125 -7.734375 C 13.257812 -6.835938 13.414062 -6.085938 13.5 -5.484375 C 13.570312 -6.085938 13.710938 -6.835938 13.921875 -7.734375 C 14.128906 -8.640625 14.335938 -9.5 14.546875 -10.3125 C 14.753906 -11.132812 14.914062 -11.695312 15.03125 -12 L 20.640625 -29.640625 Z M 26.984375 -29.640625 "/></g></g><g style="fill:#33644d;fill-opacity:1;"><g transform="translate(108.125251, 49.317361)"><path style="stroke:none" d="M 30.640625 -14.859375 C 30.640625 -11.785156 30.132812 -9.109375 29.125 -6.828125 C 28.113281 -4.546875 26.5625 -2.765625 24.46875 -1.484375 C 22.382812 -0.210938 19.734375 0.421875 16.515625 0.421875 C 13.304688 0.421875 10.65625 -0.210938 8.5625 -1.484375 C 6.476562 -2.765625 4.929688 -4.550781 3.921875 -6.84375 C 2.910156 -9.144531 2.40625 -11.832031 2.40625 -14.90625 C 2.40625 -17.976562 2.910156 -20.648438 3.921875 -22.921875 C 4.929688 -25.191406 6.476562 -26.953125 8.5625 -28.203125 C 10.65625 -29.460938 13.320312 -30.09375 16.5625 -30.09375 C 19.769531 -30.09375 22.410156 -29.460938 24.484375 -28.203125 C 26.566406 -26.953125 28.113281 -25.179688 29.125 -22.890625 C 30.132812 -20.609375 30.640625 -17.929688 30.640625 -14.859375 Z M 9.015625 -14.859375 C 9.015625 -11.765625 9.609375 -9.320312 10.796875 -7.53125 C 11.984375 -5.75 13.890625 -4.859375 16.515625 -4.859375 C 19.203125 -4.859375 21.125 -5.75 22.28125 -7.53125 C 23.445312 -9.320312 24.03125 -11.765625 24.03125 -14.859375 C 24.03125 -17.960938 23.445312 -20.40625 22.28125 -22.1875 C 21.125 -23.976562 19.21875 -24.875 16.5625 -24.875 C 13.90625 -24.875 11.984375 -23.976562 10.796875 -22.1875 C 9.609375 -20.40625 9.015625 -17.960938 9.015625 -14.859375 Z M 9.015625 -14.859375 "/></g></g><g style="fill:#0bf592;fill-opacity:1;"><g transform="translate(138.925318, 49.317361)"><path style="stroke:none" d="M 13.203125 -29.640625 C 17.023438 -29.640625 19.8125 -28.816406 21.5625 -27.171875 C 23.320312 -25.523438 24.203125 -23.265625 24.203125 -20.390625 C 24.203125 -18.640625 23.84375 -17.015625 23.125 -15.515625 C 22.40625 -14.023438 21.207031 -12.820312 19.53125 -11.90625 C 17.851562 -11 15.578125 -10.546875 12.703125 -10.546875 L 10 -10.546875 L 10 0 L 3.734375 0 L 3.734375 -29.640625 Z M 12.875 -24.5 L 10 -24.5 L 10 -15.6875 L 12.078125 -15.6875 C 13.847656 -15.6875 15.253906 -16.039062 16.296875 -16.75 C 17.335938 -17.457031 17.859375 -18.597656 17.859375 -20.171875 C 17.859375 -23.054688 16.195312 -24.5 12.875 -24.5 Z M 12.875 -24.5 "/></g></g><g style="fill:#0bf592;fill-opacity:1;"><g transform="translate(162.750062, 49.317361)"><path style="stroke:none" d="M 21.21875 -8.21875 C 21.21875 -5.59375 20.269531 -3.492188 18.375 -1.921875 C 16.476562 -0.359375 13.785156 0.421875 10.296875 0.421875 C 7.171875 0.421875 4.375 -0.175781 1.90625 -1.375 L 1.90625 -7.21875 C 3.320312 -6.613281 4.78125 -6.054688 6.28125 -5.546875 C 7.789062 -5.035156 9.296875 -4.78125 10.796875 -4.78125 C 12.347656 -4.78125 13.445312 -5.078125 14.09375 -5.671875 C 14.738281 -6.265625 15.0625 -7.015625 15.0625 -7.921875 C 15.0625 -8.671875 14.804688 -9.304688 14.296875 -9.828125 C 13.785156 -10.359375 13.097656 -10.851562 12.234375 -11.3125 C 11.378906 -11.769531 10.398438 -12.257812 9.296875 -12.78125 C 8.609375 -13.113281 7.863281 -13.507812 7.0625 -13.96875 C 6.257812 -14.425781 5.488281 -14.992188 4.75 -15.671875 C 4.019531 -16.347656 3.414062 -17.171875 2.9375 -18.140625 C 2.46875 -19.109375 2.234375 -20.269531 2.234375 -21.625 C 2.234375 -24.28125 3.132812 -26.347656 4.9375 -27.828125 C 6.738281 -29.316406 9.1875 -30.0625 12.28125 -30.0625 C 13.832031 -30.0625 15.300781 -29.878906 16.6875 -29.515625 C 18.070312 -29.160156 19.539062 -28.648438 21.09375 -27.984375 L 19.0625 -23.078125 C 17.695312 -23.628906 16.472656 -24.054688 15.390625 -24.359375 C 14.316406 -24.671875 13.210938 -24.828125 12.078125 -24.828125 C 10.890625 -24.828125 9.976562 -24.550781 9.34375 -24 C 8.707031 -23.445312 8.390625 -22.726562 8.390625 -21.84375 C 8.390625 -20.789062 8.859375 -19.957031 9.796875 -19.34375 C 10.734375 -18.738281 12.128906 -17.992188 13.984375 -17.109375 C 15.515625 -16.390625 16.8125 -15.640625 17.875 -14.859375 C 18.9375 -14.085938 19.757812 -13.175781 20.34375 -12.125 C 20.925781 -11.070312 21.21875 -9.769531 21.21875 -8.21875 Z M 21.21875 -8.21875 "/></g></g></g></g></g></svg>